<svg width="24" height="18" viewBox="0 0 24 18" fill="none" xmlns="http://www.w3.org/2000/svg">
<path d="M23.5432 13.7716L22.2531 4.83498C21.9216 2.53665 19.9213 0.833313 17.5658 0.833313H6.84199C4.48654 0.833313 2.48618 2.53665 2.15476 4.83498L0.864586 13.7716C0.604184 15.5683 2.01272 17.1666 3.84737 17.1666C4.65225 17.1666 5.40978 16.8516 5.97793 16.2916L8.65297 13.6666H15.7548L18.418 16.2916C18.9862 16.8516 19.7556 17.1666 20.5486 17.1666C22.3951 17.1666 23.8036 15.5683 23.5432 13.7716ZM11.0203 7.83331H8.65297V10.1666H7.46933V7.83331H5.10204V6.66665H7.46933V4.33331H8.65297V6.66665H11.0203V7.83331ZM15.7548 6.66665C15.1038 6.66665 14.5712 6.14165 14.5712 5.49998C14.5712 4.85831 15.1038 4.33331 15.7548 4.33331C16.4058 4.33331 16.9385 4.85831 16.9385 5.49998C16.9385 6.14165 16.4058 6.66665 15.7548 6.66665ZM18.1221 10.1666C17.4711 10.1666 16.9385 9.64165 16.9385 8.99998C16.9385 8.35831 17.4711 7.83331 18.1221 7.83331C18.7731 7.83331 19.3058 8.35831 19.3058 8.99998C19.3058 9.64165 18.7731 10.1666 18.1221 10.1666Z" fill="#2A7AE4"/>
</svg>
